# xmcd CD database file
#
# Track frame offsets:
#	150
#	12493
#	26481
#	37097
#	49106
#	61255
#	73655
#	86110
#	97450
#	111243
#	124116
#	137352
#	163098
#	177364
#	189123
#	201355
#
# Disc length: 2856 seconds
#
# Revision: 2
# Processed by: cddbd v1.5.1PL0 Copyright (c) Steve Scherf et al.
# Submitted via: CDex 1.51
#
DISCID=e70b2610
DTITLE=Erroll Garner - Smoke gets in your eyes
DYEAR=1900
DGENRE=Jazz
TTITLE0=Perdido
TTITLE1=Blues I can't forget
TTITLE2=Sweet Georgia Brown
TTITLE3=Laura
TTITLE4=Sombody loves me
TTITLE5=Stardust
TTITLE6=Smoke gets in your eyes
TTITLE7=High octane
TTITLE8=Memories of you
TTITLE9=Pastel
TTITLE10=Erroll's bounce
TTITLE11=Lover
TTITLE12=Play, piano, play
TTITLE13=Blues garni
TTITLE14=Love for sale
TTITLE15=Fantasy on Frankie and Johnny
EXTD=
EXTT0=
EXTT1=
EXTT2=
EXTT3=
EXTT4=
EXTT5=
EXTT6=
EXTT7=
EXTT8=
EXTT9=
EXTT10=
EXTT11=
EXTT12=
EXTT13=
EXTT14=
EXTT15=
PLAYORDER=
